# xmcd
#
# Track frame offsets: 
#        150
#        3960
#        12874
#        21748
#        30663
#        39663
#        48731
#        57783
#        67754
#        84892
#        94087
#        104626
#        115075
#        128186
#        141306
#        146130
#        160758
#        169825
#        178935
#        190843
#        196770
#        205775
#        219129
#        228188
#        237232
#
# Disc length: 3286 seconds
#
# Revision: 0
# Processed by: cddbd v1.5.2PL0 Copyright (c) Steve Scherf et al.
# Submitted via: ExactAudioCopy v0.95b4
#
DISCID=550cd419
DTITLE=Steve Kaufman - Four Hour Bluegreass Workout Vol2 [CD3-Fast)
DYEAR=2008
DGENRE=Bluegrass
TTITLE0=Tuning Up the Guitar
TTITLE1=Angeline the Baker
TTITLE2=Back Up and Push
TTITLE3=Big Scioty
TTITLE4=Bonaparte's Retreat
TTITLE5=Bull Durham
TTITLE6=Cattle in the Cane
TTITLE7=Cherokee Shuffle in the Key of A
TTITLE8=Chinese Breakdown
TTITLE9=Cold, Frosty Morn
TTITLE10=Crazy Creek
TTITLE11=Denver Belle
TTITLE12=Dusty Miller Hornpipe
TTITLE13=Farewell Blues
TTITLE14=Fiddler's Dram, Give the Fiddler a Dram
TTITLE15=I Don't Love Nobody
TTITLE16=Indian Killed the Woodcock
TTITLE17=Jaybird, The
TTITLE18=Jerusalem Ridge
TTITLE19=John Hardy
TTITLE20=Leather Britches
TTITLE21=Little Rabbit
TTITLE22=Little Rock Getaway
TTITLE23=Lonesome Fiddle Blues
TTITLE24=Lost Indian
EXTD=
EXTT0=
EXTT1=
EXTT2=
EXTT3=
EXTT4=
EXTT5=
EXTT6=
EXTT7=
EXTT8=
EXTT9=
EXTT10=
EXTT11=
EXTT12=
EXTT13=
EXTT14=
EXTT15=
EXTT16=
EXTT17=
EXTT18=
EXTT19=
EXTT20=
EXTT21=
EXTT22=
EXTT23=
EXTT24=
PLAYORDER=
